<mxfile host="Electron" agent="Mozilla/5.0 (Windows NT 10.0; Win64; x64) AppleWebKit/537.36 (KHTML, like Gecko) draw.io/26.0.16 Chrome/132.0.6834.196 Electron/34.2.0 Safari/537.36" version="26.0.16">
  <diagram name="Page-1" id="wCUu1rcDVpnFRU8SEDLY">
    <mxGraphModel dx="710" dy="1590" grid="1" gridSize="3" guides="1" tooltips="1" connect="1" arrows="1" fold="1" page="1" pageScale="1" pageWidth="850" pageHeight="1100" background="#E6E6E6" math="0" shadow="1" adaptiveColors="auto">
      <root>
        <mxCell id="0" />
        <mxCell id="1" parent="0" />
        <mxCell id="2xNWyVSSCW6eG2RXgIqd-1" value="Course" style="shape=table;startSize=30;container=1;collapsible=1;childLayout=tableLayout;fixedRows=1;rowLines=0;fontStyle=1;align=center;resizeLast=1;html=1;whiteSpace=wrap;labelBackgroundColor=none;" parent="1" vertex="1">
          <mxGeometry x="70" y="150" width="180" height="170" as="geometry" />
        </mxCell>
        <mxCell id="2xNWyVSSCW6eG2RXgIqd-2" value="" style="shape=tableRow;horizontal=0;startSize=0;swimlaneHead=0;swimlaneBody=0;fillColor=none;collapsible=0;dropTarget=0;points=[[0,0.5],[1,0.5]];portConstraint=eastwest;top=0;left=0;right=0;bottom=0;html=1;labelBackgroundColor=none;" parent="2xNWyVSSCW6eG2RXgIqd-1" vertex="1">
          <mxGeometry y="30" width="180" height="30" as="geometry" />
        </mxCell>
        <mxCell id="2xNWyVSSCW6eG2RXgIqd-3" value="PK" style="shape=partialRectangle;connectable=0;fillColor=none;top=0;left=0;bottom=0;right=0;fontStyle=1;overflow=hidden;html=1;whiteSpace=wrap;labelBackgroundColor=none;" parent="2xNWyVSSCW6eG2RXgIqd-2" vertex="1">
          <mxGeometry width="60" height="30" as="geometry">
            <mxRectangle width="60" height="30" as="alternateBounds" />
          </mxGeometry>
        </mxCell>
        <mxCell id="2xNWyVSSCW6eG2RXgIqd-4" value="CourseID" style="shape=partialRectangle;connectable=0;fillColor=none;top=0;left=0;bottom=0;right=0;align=left;spacingLeft=6;fontStyle=5;overflow=hidden;html=1;whiteSpace=wrap;labelBackgroundColor=none;" parent="2xNWyVSSCW6eG2RXgIqd-2" vertex="1">
          <mxGeometry x="60" width="120" height="30" as="geometry">
            <mxRectangle width="120" height="30" as="alternateBounds" />
          </mxGeometry>
        </mxCell>
        <mxCell id="2xNWyVSSCW6eG2RXgIqd-5" value="" style="shape=tableRow;horizontal=0;startSize=0;swimlaneHead=0;swimlaneBody=0;fillColor=none;collapsible=0;dropTarget=0;points=[[0,0.5],[1,0.5]];portConstraint=eastwest;top=0;left=0;right=0;bottom=1;html=1;labelBackgroundColor=none;" parent="2xNWyVSSCW6eG2RXgIqd-1" vertex="1">
          <mxGeometry y="60" width="180" height="30" as="geometry" />
        </mxCell>
        <mxCell id="2xNWyVSSCW6eG2RXgIqd-6" value="FK" style="shape=partialRectangle;connectable=0;fillColor=none;top=0;left=0;bottom=0;right=0;fontStyle=1;overflow=hidden;html=1;whiteSpace=wrap;labelBackgroundColor=none;" parent="2xNWyVSSCW6eG2RXgIqd-5" vertex="1">
          <mxGeometry width="60" height="30" as="geometry">
            <mxRectangle width="60" height="30" as="alternateBounds" />
          </mxGeometry>
        </mxCell>
        <mxCell id="2xNWyVSSCW6eG2RXgIqd-7" value="ProfessorID" style="shape=partialRectangle;connectable=0;fillColor=none;top=0;left=0;bottom=0;right=0;align=left;spacingLeft=6;fontStyle=5;overflow=hidden;html=1;whiteSpace=wrap;labelBackgroundColor=none;" parent="2xNWyVSSCW6eG2RXgIqd-5" vertex="1">
          <mxGeometry x="60" width="120" height="30" as="geometry">
            <mxRectangle width="120" height="30" as="alternateBounds" />
          </mxGeometry>
        </mxCell>
        <mxCell id="2xNWyVSSCW6eG2RXgIqd-8" value="" style="shape=tableRow;horizontal=0;startSize=0;swimlaneHead=0;swimlaneBody=0;fillColor=none;collapsible=0;dropTarget=0;points=[[0,0.5],[1,0.5]];portConstraint=eastwest;top=0;left=0;right=0;bottom=0;html=1;labelBackgroundColor=none;" parent="2xNWyVSSCW6eG2RXgIqd-1" vertex="1">
          <mxGeometry y="90" width="180" height="30" as="geometry" />
        </mxCell>
        <mxCell id="2xNWyVSSCW6eG2RXgIqd-9" value="" style="shape=partialRectangle;connectable=0;fillColor=none;top=0;left=0;bottom=0;right=0;editable=1;overflow=hidden;html=1;whiteSpace=wrap;labelBackgroundColor=none;" parent="2xNWyVSSCW6eG2RXgIqd-8" vertex="1">
          <mxGeometry width="60" height="30" as="geometry">
            <mxRectangle width="60" height="30" as="alternateBounds" />
          </mxGeometry>
        </mxCell>
        <mxCell id="2xNWyVSSCW6eG2RXgIqd-10" value="Name" style="shape=partialRectangle;connectable=0;fillColor=none;top=0;left=0;bottom=0;right=0;align=left;spacingLeft=6;overflow=hidden;html=1;whiteSpace=wrap;labelBackgroundColor=none;" parent="2xNWyVSSCW6eG2RXgIqd-8" vertex="1">
          <mxGeometry x="60" width="120" height="30" as="geometry">
            <mxRectangle width="120" height="30" as="alternateBounds" />
          </mxGeometry>
        </mxCell>
        <mxCell id="2xNWyVSSCW6eG2RXgIqd-11" value="" style="shape=tableRow;horizontal=0;startSize=0;swimlaneHead=0;swimlaneBody=0;fillColor=none;collapsible=0;dropTarget=0;points=[[0,0.5],[1,0.5]];portConstraint=eastwest;top=0;left=0;right=0;bottom=0;html=1;labelBackgroundColor=none;" parent="2xNWyVSSCW6eG2RXgIqd-1" vertex="1">
          <mxGeometry y="120" width="180" height="20" as="geometry" />
        </mxCell>
        <mxCell id="2xNWyVSSCW6eG2RXgIqd-12" value="" style="shape=partialRectangle;connectable=0;fillColor=none;top=0;left=0;bottom=0;right=0;editable=1;overflow=hidden;html=1;whiteSpace=wrap;labelBackgroundColor=none;" parent="2xNWyVSSCW6eG2RXgIqd-11" vertex="1">
          <mxGeometry width="60" height="20" as="geometry">
            <mxRectangle width="60" height="20" as="alternateBounds" />
          </mxGeometry>
        </mxCell>
        <mxCell id="2xNWyVSSCW6eG2RXgIqd-13" value="Tittle" style="shape=partialRectangle;connectable=0;fillColor=none;top=0;left=0;bottom=0;right=0;align=left;spacingLeft=6;overflow=hidden;html=1;whiteSpace=wrap;labelBackgroundColor=none;" parent="2xNWyVSSCW6eG2RXgIqd-11" vertex="1">
          <mxGeometry x="60" width="120" height="20" as="geometry">
            <mxRectangle width="120" height="20" as="alternateBounds" />
          </mxGeometry>
        </mxCell>
        <mxCell id="2xNWyVSSCW6eG2RXgIqd-69" style="shape=tableRow;horizontal=0;startSize=0;swimlaneHead=0;swimlaneBody=0;fillColor=none;collapsible=0;dropTarget=0;points=[[0,0.5],[1,0.5]];portConstraint=eastwest;top=0;left=0;right=0;bottom=0;html=1;labelBackgroundColor=none;" parent="2xNWyVSSCW6eG2RXgIqd-1" vertex="1">
          <mxGeometry y="140" width="180" height="30" as="geometry" />
        </mxCell>
        <mxCell id="2xNWyVSSCW6eG2RXgIqd-70" style="shape=partialRectangle;connectable=0;fillColor=none;top=0;left=0;bottom=0;right=0;editable=1;overflow=hidden;html=1;whiteSpace=wrap;labelBackgroundColor=none;" parent="2xNWyVSSCW6eG2RXgIqd-69" vertex="1">
          <mxGeometry width="60" height="30" as="geometry">
            <mxRectangle width="60" height="30" as="alternateBounds" />
          </mxGeometry>
        </mxCell>
        <mxCell id="2xNWyVSSCW6eG2RXgIqd-71" value="Code" style="shape=partialRectangle;connectable=0;fillColor=none;top=0;left=0;bottom=0;right=0;align=left;spacingLeft=6;overflow=hidden;html=1;whiteSpace=wrap;labelBackgroundColor=none;" parent="2xNWyVSSCW6eG2RXgIqd-69" vertex="1">
          <mxGeometry x="60" width="120" height="30" as="geometry">
            <mxRectangle width="120" height="30" as="alternateBounds" />
          </mxGeometry>
        </mxCell>
        <mxCell id="2xNWyVSSCW6eG2RXgIqd-14" value="Student" style="shape=table;startSize=30;container=1;collapsible=1;childLayout=tableLayout;fixedRows=1;rowLines=0;fontStyle=1;align=center;resizeLast=1;html=1;whiteSpace=wrap;labelBackgroundColor=none;" parent="1" vertex="1">
          <mxGeometry x="120" y="-90" width="160" height="140" as="geometry" />
        </mxCell>
        <mxCell id="2xNWyVSSCW6eG2RXgIqd-15" value="" style="shape=tableRow;horizontal=0;startSize=0;swimlaneHead=0;swimlaneBody=0;fillColor=none;collapsible=0;dropTarget=0;points=[[0,0.5],[1,0.5]];portConstraint=eastwest;top=0;left=0;right=0;bottom=0;html=1;labelBackgroundColor=none;" parent="2xNWyVSSCW6eG2RXgIqd-14" vertex="1">
          <mxGeometry y="30" width="160" height="30" as="geometry" />
        </mxCell>
        <mxCell id="2xNWyVSSCW6eG2RXgIqd-16" value="PK" style="shape=partialRectangle;connectable=0;fillColor=none;top=0;left=0;bottom=0;right=0;fontStyle=1;overflow=hidden;html=1;whiteSpace=wrap;labelBackgroundColor=none;" parent="2xNWyVSSCW6eG2RXgIqd-15" vertex="1">
          <mxGeometry width="40" height="30" as="geometry">
            <mxRectangle width="40" height="30" as="alternateBounds" />
          </mxGeometry>
        </mxCell>
        <mxCell id="2xNWyVSSCW6eG2RXgIqd-17" value="StudentID" style="shape=partialRectangle;connectable=0;fillColor=none;top=0;left=0;bottom=0;right=0;align=left;spacingLeft=6;fontStyle=5;overflow=hidden;html=1;whiteSpace=wrap;labelBackgroundColor=none;" parent="2xNWyVSSCW6eG2RXgIqd-15" vertex="1">
          <mxGeometry x="40" width="120" height="30" as="geometry">
            <mxRectangle width="120" height="30" as="alternateBounds" />
          </mxGeometry>
        </mxCell>
        <mxCell id="2xNWyVSSCW6eG2RXgIqd-18" value="" style="shape=tableRow;horizontal=0;startSize=0;swimlaneHead=0;swimlaneBody=0;fillColor=none;collapsible=0;dropTarget=0;points=[[0,0.5],[1,0.5]];portConstraint=eastwest;top=0;left=0;right=0;bottom=1;html=1;labelBackgroundColor=none;" parent="2xNWyVSSCW6eG2RXgIqd-14" vertex="1">
          <mxGeometry y="60" width="160" height="20" as="geometry" />
        </mxCell>
        <mxCell id="2xNWyVSSCW6eG2RXgIqd-19" value="FK" style="shape=partialRectangle;connectable=0;fillColor=none;top=0;left=0;bottom=0;right=0;fontStyle=1;overflow=hidden;html=1;whiteSpace=wrap;labelBackgroundColor=none;" parent="2xNWyVSSCW6eG2RXgIqd-18" vertex="1">
          <mxGeometry width="40" height="20" as="geometry">
            <mxRectangle width="40" height="20" as="alternateBounds" />
          </mxGeometry>
        </mxCell>
        <mxCell id="2xNWyVSSCW6eG2RXgIqd-20" value="DepartmentID" style="shape=partialRectangle;connectable=0;fillColor=none;top=0;left=0;bottom=0;right=0;align=left;spacingLeft=6;fontStyle=5;overflow=hidden;html=1;whiteSpace=wrap;labelBackgroundColor=none;" parent="2xNWyVSSCW6eG2RXgIqd-18" vertex="1">
          <mxGeometry x="40" width="120" height="20" as="geometry">
            <mxRectangle width="120" height="20" as="alternateBounds" />
          </mxGeometry>
        </mxCell>
        <mxCell id="2xNWyVSSCW6eG2RXgIqd-21" value="" style="shape=tableRow;horizontal=0;startSize=0;swimlaneHead=0;swimlaneBody=0;fillColor=none;collapsible=0;dropTarget=0;points=[[0,0.5],[1,0.5]];portConstraint=eastwest;top=0;left=0;right=0;bottom=0;html=1;labelBackgroundColor=none;" parent="2xNWyVSSCW6eG2RXgIqd-14" vertex="1">
          <mxGeometry y="80" width="160" height="30" as="geometry" />
        </mxCell>
        <mxCell id="2xNWyVSSCW6eG2RXgIqd-22" value="" style="shape=partialRectangle;connectable=0;fillColor=none;top=0;left=0;bottom=0;right=0;editable=1;overflow=hidden;html=1;whiteSpace=wrap;labelBackgroundColor=none;" parent="2xNWyVSSCW6eG2RXgIqd-21" vertex="1">
          <mxGeometry width="40" height="30" as="geometry">
            <mxRectangle width="40" height="30" as="alternateBounds" />
          </mxGeometry>
        </mxCell>
        <mxCell id="2xNWyVSSCW6eG2RXgIqd-23" value="Name" style="shape=partialRectangle;connectable=0;fillColor=none;top=0;left=0;bottom=0;right=0;align=left;spacingLeft=6;overflow=hidden;html=1;whiteSpace=wrap;labelBackgroundColor=none;" parent="2xNWyVSSCW6eG2RXgIqd-21" vertex="1">
          <mxGeometry x="40" width="120" height="30" as="geometry">
            <mxRectangle width="120" height="30" as="alternateBounds" />
          </mxGeometry>
        </mxCell>
        <mxCell id="2xNWyVSSCW6eG2RXgIqd-24" value="" style="shape=tableRow;horizontal=0;startSize=0;swimlaneHead=0;swimlaneBody=0;fillColor=none;collapsible=0;dropTarget=0;points=[[0,0.5],[1,0.5]];portConstraint=eastwest;top=0;left=0;right=0;bottom=0;html=1;labelBackgroundColor=none;" parent="2xNWyVSSCW6eG2RXgIqd-14" vertex="1">
          <mxGeometry y="110" width="160" height="30" as="geometry" />
        </mxCell>
        <mxCell id="2xNWyVSSCW6eG2RXgIqd-25" value="" style="shape=partialRectangle;connectable=0;fillColor=none;top=0;left=0;bottom=0;right=0;editable=1;overflow=hidden;html=1;whiteSpace=wrap;labelBackgroundColor=none;" parent="2xNWyVSSCW6eG2RXgIqd-24" vertex="1">
          <mxGeometry width="40" height="30" as="geometry">
            <mxRectangle width="40" height="30" as="alternateBounds" />
          </mxGeometry>
        </mxCell>
        <mxCell id="2xNWyVSSCW6eG2RXgIqd-26" value="RegistrationNumber" style="shape=partialRectangle;connectable=0;fillColor=none;top=0;left=0;bottom=0;right=0;align=left;spacingLeft=6;overflow=hidden;html=1;whiteSpace=wrap;labelBackgroundColor=none;" parent="2xNWyVSSCW6eG2RXgIqd-24" vertex="1">
          <mxGeometry x="40" width="120" height="30" as="geometry">
            <mxRectangle width="120" height="30" as="alternateBounds" />
          </mxGeometry>
        </mxCell>
        <mxCell id="2xNWyVSSCW6eG2RXgIqd-40" value="Professor" style="shape=table;startSize=30;container=1;collapsible=1;childLayout=tableLayout;fixedRows=1;rowLines=0;fontStyle=1;align=center;resizeLast=1;html=1;whiteSpace=wrap;labelBackgroundColor=none;" parent="1" vertex="1">
          <mxGeometry x="360" y="230" width="180" height="150" as="geometry" />
        </mxCell>
        <mxCell id="2xNWyVSSCW6eG2RXgIqd-41" value="" style="shape=tableRow;horizontal=0;startSize=0;swimlaneHead=0;swimlaneBody=0;fillColor=none;collapsible=0;dropTarget=0;points=[[0,0.5],[1,0.5]];portConstraint=eastwest;top=0;left=0;right=0;bottom=0;html=1;labelBackgroundColor=none;" parent="2xNWyVSSCW6eG2RXgIqd-40" vertex="1">
          <mxGeometry y="30" width="180" height="30" as="geometry" />
        </mxCell>
        <mxCell id="2xNWyVSSCW6eG2RXgIqd-42" value="PK" style="shape=partialRectangle;connectable=0;fillColor=none;top=0;left=0;bottom=0;right=0;fontStyle=1;overflow=hidden;html=1;whiteSpace=wrap;labelBackgroundColor=none;" parent="2xNWyVSSCW6eG2RXgIqd-41" vertex="1">
          <mxGeometry width="60" height="30" as="geometry">
            <mxRectangle width="60" height="30" as="alternateBounds" />
          </mxGeometry>
        </mxCell>
        <mxCell id="2xNWyVSSCW6eG2RXgIqd-43" value="ProfessorID" style="shape=partialRectangle;connectable=0;fillColor=none;top=0;left=0;bottom=0;right=0;align=left;spacingLeft=6;fontStyle=5;overflow=hidden;html=1;whiteSpace=wrap;labelBackgroundColor=none;" parent="2xNWyVSSCW6eG2RXgIqd-41" vertex="1">
          <mxGeometry x="60" width="120" height="30" as="geometry">
            <mxRectangle width="120" height="30" as="alternateBounds" />
          </mxGeometry>
        </mxCell>
        <mxCell id="2xNWyVSSCW6eG2RXgIqd-44" value="" style="shape=tableRow;horizontal=0;startSize=0;swimlaneHead=0;swimlaneBody=0;fillColor=none;collapsible=0;dropTarget=0;points=[[0,0.5],[1,0.5]];portConstraint=eastwest;top=0;left=0;right=0;bottom=1;html=1;labelBackgroundColor=none;" parent="2xNWyVSSCW6eG2RXgIqd-40" vertex="1">
          <mxGeometry y="60" width="180" height="30" as="geometry" />
        </mxCell>
        <mxCell id="2xNWyVSSCW6eG2RXgIqd-45" value="FK" style="shape=partialRectangle;connectable=0;fillColor=none;top=0;left=0;bottom=0;right=0;fontStyle=1;overflow=hidden;html=1;whiteSpace=wrap;labelBackgroundColor=none;" parent="2xNWyVSSCW6eG2RXgIqd-44" vertex="1">
          <mxGeometry width="60" height="30" as="geometry">
            <mxRectangle width="60" height="30" as="alternateBounds" />
          </mxGeometry>
        </mxCell>
        <mxCell id="2xNWyVSSCW6eG2RXgIqd-46" value="DepartmentID" style="shape=partialRectangle;connectable=0;fillColor=none;top=0;left=0;bottom=0;right=0;align=left;spacingLeft=6;fontStyle=5;overflow=hidden;html=1;whiteSpace=wrap;labelBackgroundColor=none;" parent="2xNWyVSSCW6eG2RXgIqd-44" vertex="1">
          <mxGeometry x="60" width="120" height="30" as="geometry">
            <mxRectangle width="120" height="30" as="alternateBounds" />
          </mxGeometry>
        </mxCell>
        <mxCell id="2xNWyVSSCW6eG2RXgIqd-47" value="" style="shape=tableRow;horizontal=0;startSize=0;swimlaneHead=0;swimlaneBody=0;fillColor=none;collapsible=0;dropTarget=0;points=[[0,0.5],[1,0.5]];portConstraint=eastwest;top=0;left=0;right=0;bottom=0;html=1;labelBackgroundColor=none;" parent="2xNWyVSSCW6eG2RXgIqd-40" vertex="1">
          <mxGeometry y="90" width="180" height="30" as="geometry" />
        </mxCell>
        <mxCell id="2xNWyVSSCW6eG2RXgIqd-48" value="" style="shape=partialRectangle;connectable=0;fillColor=none;top=0;left=0;bottom=0;right=0;editable=1;overflow=hidden;html=1;whiteSpace=wrap;labelBackgroundColor=none;" parent="2xNWyVSSCW6eG2RXgIqd-47" vertex="1">
          <mxGeometry width="60" height="30" as="geometry">
            <mxRectangle width="60" height="30" as="alternateBounds" />
          </mxGeometry>
        </mxCell>
        <mxCell id="2xNWyVSSCW6eG2RXgIqd-49" value="Name" style="shape=partialRectangle;connectable=0;fillColor=none;top=0;left=0;bottom=0;right=0;align=left;spacingLeft=6;overflow=hidden;html=1;whiteSpace=wrap;labelBackgroundColor=none;" parent="2xNWyVSSCW6eG2RXgIqd-47" vertex="1">
          <mxGeometry x="60" width="120" height="30" as="geometry">
            <mxRectangle width="120" height="30" as="alternateBounds" />
          </mxGeometry>
        </mxCell>
        <mxCell id="2xNWyVSSCW6eG2RXgIqd-50" value="" style="shape=tableRow;horizontal=0;startSize=0;swimlaneHead=0;swimlaneBody=0;fillColor=none;collapsible=0;dropTarget=0;points=[[0,0.5],[1,0.5]];portConstraint=eastwest;top=0;left=0;right=0;bottom=0;html=1;labelBackgroundColor=none;" parent="2xNWyVSSCW6eG2RXgIqd-40" vertex="1">
          <mxGeometry y="120" width="180" height="30" as="geometry" />
        </mxCell>
        <mxCell id="2xNWyVSSCW6eG2RXgIqd-51" value="" style="shape=partialRectangle;connectable=0;fillColor=none;top=0;left=0;bottom=0;right=0;editable=1;overflow=hidden;html=1;whiteSpace=wrap;labelBackgroundColor=none;" parent="2xNWyVSSCW6eG2RXgIqd-50" vertex="1">
          <mxGeometry width="60" height="30" as="geometry">
            <mxRectangle width="60" height="30" as="alternateBounds" />
          </mxGeometry>
        </mxCell>
        <mxCell id="2xNWyVSSCW6eG2RXgIqd-52" value="Adress" style="shape=partialRectangle;connectable=0;fillColor=none;top=0;left=0;bottom=0;right=0;align=left;spacingLeft=6;overflow=hidden;html=1;whiteSpace=wrap;labelBackgroundColor=none;" parent="2xNWyVSSCW6eG2RXgIqd-50" vertex="1">
          <mxGeometry x="60" width="120" height="30" as="geometry">
            <mxRectangle width="120" height="30" as="alternateBounds" />
          </mxGeometry>
        </mxCell>
        <mxCell id="2xNWyVSSCW6eG2RXgIqd-53" value="Enrollment" style="shape=table;startSize=30;container=1;collapsible=1;childLayout=tableLayout;fixedRows=1;rowLines=0;fontStyle=1;align=center;resizeLast=1;html=1;whiteSpace=wrap;labelBackgroundColor=none;" parent="1" vertex="1">
          <mxGeometry x="390" y="40" width="150" height="140" as="geometry" />
        </mxCell>
        <mxCell id="2xNWyVSSCW6eG2RXgIqd-54" value="" style="shape=tableRow;horizontal=0;startSize=0;swimlaneHead=0;swimlaneBody=0;fillColor=none;collapsible=0;dropTarget=0;points=[[0,0.5],[1,0.5]];portConstraint=eastwest;top=0;left=0;right=0;bottom=0;html=1;labelBackgroundColor=none;" parent="2xNWyVSSCW6eG2RXgIqd-53" vertex="1">
          <mxGeometry y="30" width="150" height="30" as="geometry" />
        </mxCell>
        <mxCell id="2xNWyVSSCW6eG2RXgIqd-55" value="PK" style="shape=partialRectangle;connectable=0;fillColor=none;top=0;left=0;bottom=0;right=0;fontStyle=1;overflow=hidden;html=1;whiteSpace=wrap;labelBackgroundColor=none;" parent="2xNWyVSSCW6eG2RXgIqd-54" vertex="1">
          <mxGeometry width="40" height="30" as="geometry">
            <mxRectangle width="40" height="30" as="alternateBounds" />
          </mxGeometry>
        </mxCell>
        <mxCell id="2xNWyVSSCW6eG2RXgIqd-56" value="EnrollmentID" style="shape=partialRectangle;connectable=0;fillColor=none;top=0;left=0;bottom=0;right=0;align=left;spacingLeft=6;fontStyle=5;overflow=hidden;html=1;whiteSpace=wrap;labelBackgroundColor=none;" parent="2xNWyVSSCW6eG2RXgIqd-54" vertex="1">
          <mxGeometry x="40" width="110" height="30" as="geometry">
            <mxRectangle width="110" height="30" as="alternateBounds" />
          </mxGeometry>
        </mxCell>
        <mxCell id="2xNWyVSSCW6eG2RXgIqd-57" value="" style="shape=tableRow;horizontal=0;startSize=0;swimlaneHead=0;swimlaneBody=0;fillColor=none;collapsible=0;dropTarget=0;points=[[0,0.5],[1,0.5]];portConstraint=eastwest;top=0;left=0;right=0;bottom=1;html=1;labelBackgroundColor=none;" parent="2xNWyVSSCW6eG2RXgIqd-53" vertex="1">
          <mxGeometry y="60" width="150" height="30" as="geometry" />
        </mxCell>
        <mxCell id="2xNWyVSSCW6eG2RXgIqd-58" value="FK" style="shape=partialRectangle;connectable=0;fillColor=none;top=0;left=0;bottom=0;right=0;fontStyle=1;overflow=hidden;html=1;whiteSpace=wrap;labelBackgroundColor=none;" parent="2xNWyVSSCW6eG2RXgIqd-57" vertex="1">
          <mxGeometry width="40" height="30" as="geometry">
            <mxRectangle width="40" height="30" as="alternateBounds" />
          </mxGeometry>
        </mxCell>
        <mxCell id="2xNWyVSSCW6eG2RXgIqd-59" value="StudentID" style="shape=partialRectangle;connectable=0;fillColor=none;top=0;left=0;bottom=0;right=0;align=left;spacingLeft=6;fontStyle=5;overflow=hidden;html=1;whiteSpace=wrap;labelBackgroundColor=none;" parent="2xNWyVSSCW6eG2RXgIqd-57" vertex="1">
          <mxGeometry x="40" width="110" height="30" as="geometry">
            <mxRectangle width="110" height="30" as="alternateBounds" />
          </mxGeometry>
        </mxCell>
        <mxCell id="2xNWyVSSCW6eG2RXgIqd-60" value="" style="shape=tableRow;horizontal=0;startSize=0;swimlaneHead=0;swimlaneBody=0;fillColor=none;collapsible=0;dropTarget=0;points=[[0,0.5],[1,0.5]];portConstraint=eastwest;top=0;left=0;right=0;bottom=0;html=1;labelBackgroundColor=none;" parent="2xNWyVSSCW6eG2RXgIqd-53" vertex="1">
          <mxGeometry y="90" width="150" height="20" as="geometry" />
        </mxCell>
        <mxCell id="2xNWyVSSCW6eG2RXgIqd-61" value="" style="shape=partialRectangle;connectable=0;fillColor=none;top=0;left=0;bottom=0;right=0;editable=1;overflow=hidden;html=1;whiteSpace=wrap;labelBackgroundColor=none;" parent="2xNWyVSSCW6eG2RXgIqd-60" vertex="1">
          <mxGeometry width="40" height="20" as="geometry">
            <mxRectangle width="40" height="20" as="alternateBounds" />
          </mxGeometry>
        </mxCell>
        <mxCell id="2xNWyVSSCW6eG2RXgIqd-62" value="EnrollmentDate" style="shape=partialRectangle;connectable=0;fillColor=none;top=0;left=0;bottom=0;right=0;align=left;spacingLeft=6;overflow=hidden;html=1;whiteSpace=wrap;labelBackgroundColor=none;" parent="2xNWyVSSCW6eG2RXgIqd-60" vertex="1">
          <mxGeometry x="40" width="110" height="20" as="geometry">
            <mxRectangle width="110" height="20" as="alternateBounds" />
          </mxGeometry>
        </mxCell>
        <mxCell id="2xNWyVSSCW6eG2RXgIqd-63" value="" style="shape=tableRow;horizontal=0;startSize=0;swimlaneHead=0;swimlaneBody=0;fillColor=none;collapsible=0;dropTarget=0;points=[[0,0.5],[1,0.5]];portConstraint=eastwest;top=0;left=0;right=0;bottom=0;html=1;labelBackgroundColor=none;" parent="2xNWyVSSCW6eG2RXgIqd-53" vertex="1">
          <mxGeometry y="110" width="150" height="30" as="geometry" />
        </mxCell>
        <mxCell id="2xNWyVSSCW6eG2RXgIqd-64" value="" style="shape=partialRectangle;connectable=0;fillColor=none;top=0;left=0;bottom=0;right=0;editable=1;overflow=hidden;html=1;whiteSpace=wrap;labelBackgroundColor=none;" parent="2xNWyVSSCW6eG2RXgIqd-63" vertex="1">
          <mxGeometry width="40" height="30" as="geometry">
            <mxRectangle width="40" height="30" as="alternateBounds" />
          </mxGeometry>
        </mxCell>
        <mxCell id="2xNWyVSSCW6eG2RXgIqd-65" value="EnrollmentCourse" style="shape=partialRectangle;connectable=0;fillColor=none;top=0;left=0;bottom=0;right=0;align=left;spacingLeft=6;overflow=hidden;html=1;whiteSpace=wrap;labelBackgroundColor=none;" parent="2xNWyVSSCW6eG2RXgIqd-63" vertex="1">
          <mxGeometry x="40" width="110" height="30" as="geometry">
            <mxRectangle width="110" height="30" as="alternateBounds" />
          </mxGeometry>
        </mxCell>
        <mxCell id="2xNWyVSSCW6eG2RXgIqd-72" value="" style="edgeStyle=entityRelationEdgeStyle;fontSize=12;html=1;endArrow=ERoneToMany;rounded=0;entryX=0.027;entryY=0.185;entryDx=0;entryDy=0;entryPerimeter=0;exitX=1.002;exitY=0.064;exitDx=0;exitDy=0;exitPerimeter=0;labelBackgroundColor=none;fontColor=default;" parent="1" source="2xNWyVSSCW6eG2RXgIqd-24" edge="1">
          <mxGeometry width="100" height="100" relative="1" as="geometry">
            <mxPoint x="247" y="203" as="sourcePoint" />
            <mxPoint x="389.99999999999994" y="89.99999999999996" as="targetPoint" />
          </mxGeometry>
        </mxCell>
        <mxCell id="2xNWyVSSCW6eG2RXgIqd-73" value="" style="edgeStyle=entityRelationEdgeStyle;fontSize=12;html=1;endArrow=ERoneToMany;rounded=0;entryX=0;entryY=0.5;entryDx=0;entryDy=0;exitX=1;exitY=0.25;exitDx=0;exitDy=0;labelBackgroundColor=none;fontColor=default;" parent="1" source="2xNWyVSSCW6eG2RXgIqd-1" edge="1">
          <mxGeometry width="100" height="100" relative="1" as="geometry">
            <mxPoint x="260" y="190" as="sourcePoint" />
            <mxPoint x="390" y="120" as="targetPoint" />
          </mxGeometry>
        </mxCell>
        <mxCell id="2xNWyVSSCW6eG2RXgIqd-75" value="" style="edgeStyle=entityRelationEdgeStyle;fontSize=12;html=1;endArrow=ERoneToMany;rounded=0;entryX=0;entryY=0.5;entryDx=0;entryDy=0;labelBackgroundColor=none;fontColor=default;" parent="1" source="2xNWyVSSCW6eG2RXgIqd-84" target="2xNWyVSSCW6eG2RXgIqd-50" edge="1">
          <mxGeometry width="100" height="100" relative="1" as="geometry">
            <mxPoint x="270" y="480" as="sourcePoint" />
            <mxPoint x="390" y="370" as="targetPoint" />
          </mxGeometry>
        </mxCell>
        <mxCell id="2xNWyVSSCW6eG2RXgIqd-76" value="" style="edgeStyle=entityRelationEdgeStyle;fontSize=12;html=1;endArrow=ERoneToMany;rounded=0;exitX=0.25;exitY=0;exitDx=0;exitDy=0;labelBackgroundColor=none;fontColor=default;" parent="1" source="2xNWyVSSCW6eG2RXgIqd-77" target="2xNWyVSSCW6eG2RXgIqd-8" edge="1">
          <mxGeometry width="100" height="100" relative="1" as="geometry">
            <mxPoint x="180" y="450" as="sourcePoint" />
            <mxPoint x="60" y="300" as="targetPoint" />
            <Array as="points">
              <mxPoint x="130" y="340" />
            </Array>
          </mxGeometry>
        </mxCell>
        <mxCell id="2xNWyVSSCW6eG2RXgIqd-77" value="&lt;span style=&quot;text-wrap-mode: wrap;&quot;&gt;Department&lt;/span&gt;" style="shape=table;startSize=30;container=1;collapsible=1;childLayout=tableLayout;fixedRows=1;rowLines=0;fontStyle=1;align=center;resizeLast=1;html=1;labelBackgroundColor=none;" parent="1" vertex="1">
          <mxGeometry x="200" y="400" width="120" height="140" as="geometry" />
        </mxCell>
        <mxCell id="2xNWyVSSCW6eG2RXgIqd-78" value="" style="shape=tableRow;horizontal=0;startSize=0;swimlaneHead=0;swimlaneBody=0;fillColor=none;collapsible=0;dropTarget=0;points=[[0,0.5],[1,0.5]];portConstraint=eastwest;top=0;left=0;right=0;bottom=1;labelBackgroundColor=none;" parent="2xNWyVSSCW6eG2RXgIqd-77" vertex="1">
          <mxGeometry y="30" width="120" height="30" as="geometry" />
        </mxCell>
        <mxCell id="2xNWyVSSCW6eG2RXgIqd-79" value="PK" style="shape=partialRectangle;connectable=0;fillColor=none;top=0;left=0;bottom=0;right=0;fontStyle=1;overflow=hidden;whiteSpace=wrap;html=1;labelBackgroundColor=none;" parent="2xNWyVSSCW6eG2RXgIqd-78" vertex="1">
          <mxGeometry width="30" height="30" as="geometry">
            <mxRectangle width="30" height="30" as="alternateBounds" />
          </mxGeometry>
        </mxCell>
        <mxCell id="2xNWyVSSCW6eG2RXgIqd-80" value="&#xa;&lt;span style=&quot;color: rgb(0, 0, 0); font-family: Helvetica; font-size: 12px; font-style: normal; font-variant-ligatures: normal; font-variant-caps: normal; font-weight: 700; letter-spacing: normal; orphans: 2; text-align: left; text-indent: 0px; text-transform: none; widows: 2; word-spacing: 0px; -webkit-text-stroke-width: 0px; white-space: normal; background-color: rgb(251, 251, 251); text-decoration: underline; display: inline !important; float: none;&quot;&gt;DepartmentID&lt;/span&gt;&#xa;&#xa;" style="shape=partialRectangle;connectable=0;fillColor=none;top=0;left=0;bottom=0;right=0;align=left;spacingLeft=6;fontStyle=5;overflow=hidden;whiteSpace=wrap;html=1;labelBackgroundColor=none;" parent="2xNWyVSSCW6eG2RXgIqd-78" vertex="1">
          <mxGeometry x="30" width="90" height="30" as="geometry">
            <mxRectangle width="90" height="30" as="alternateBounds" />
          </mxGeometry>
        </mxCell>
        <mxCell id="2xNWyVSSCW6eG2RXgIqd-81" value="" style="shape=tableRow;horizontal=0;startSize=0;swimlaneHead=0;swimlaneBody=0;fillColor=none;collapsible=0;dropTarget=0;points=[[0,0.5],[1,0.5]];portConstraint=eastwest;top=0;left=0;right=0;bottom=0;labelBackgroundColor=none;" parent="2xNWyVSSCW6eG2RXgIqd-77" vertex="1">
          <mxGeometry y="60" width="120" height="30" as="geometry" />
        </mxCell>
        <mxCell id="2xNWyVSSCW6eG2RXgIqd-82" value="" style="shape=partialRectangle;connectable=0;fillColor=none;top=0;left=0;bottom=0;right=0;editable=1;overflow=hidden;whiteSpace=wrap;html=1;labelBackgroundColor=none;" parent="2xNWyVSSCW6eG2RXgIqd-81" vertex="1">
          <mxGeometry width="30" height="30" as="geometry">
            <mxRectangle width="30" height="30" as="alternateBounds" />
          </mxGeometry>
        </mxCell>
        <mxCell id="2xNWyVSSCW6eG2RXgIqd-83" value="Name" style="shape=partialRectangle;connectable=0;fillColor=none;top=0;left=0;bottom=0;right=0;align=left;spacingLeft=6;overflow=hidden;whiteSpace=wrap;html=1;labelBackgroundColor=none;" parent="2xNWyVSSCW6eG2RXgIqd-81" vertex="1">
          <mxGeometry x="30" width="90" height="30" as="geometry">
            <mxRectangle width="90" height="30" as="alternateBounds" />
          </mxGeometry>
        </mxCell>
        <mxCell id="2xNWyVSSCW6eG2RXgIqd-84" value="" style="shape=tableRow;horizontal=0;startSize=0;swimlaneHead=0;swimlaneBody=0;fillColor=none;collapsible=0;dropTarget=0;points=[[0,0.5],[1,0.5]];portConstraint=eastwest;top=0;left=0;right=0;bottom=0;labelBackgroundColor=none;" parent="2xNWyVSSCW6eG2RXgIqd-77" vertex="1">
          <mxGeometry y="90" width="120" height="30" as="geometry" />
        </mxCell>
        <mxCell id="2xNWyVSSCW6eG2RXgIqd-85" value="" style="shape=partialRectangle;connectable=0;fillColor=none;top=0;left=0;bottom=0;right=0;editable=1;overflow=hidden;whiteSpace=wrap;html=1;labelBackgroundColor=none;" parent="2xNWyVSSCW6eG2RXgIqd-84" vertex="1">
          <mxGeometry width="30" height="30" as="geometry">
            <mxRectangle width="30" height="30" as="alternateBounds" />
          </mxGeometry>
        </mxCell>
        <mxCell id="2xNWyVSSCW6eG2RXgIqd-86" value="Location" style="shape=partialRectangle;connectable=0;fillColor=none;top=0;left=0;bottom=0;right=0;align=left;spacingLeft=6;overflow=hidden;whiteSpace=wrap;html=1;labelBackgroundColor=none;" parent="2xNWyVSSCW6eG2RXgIqd-84" vertex="1">
          <mxGeometry x="30" width="90" height="30" as="geometry">
            <mxRectangle width="90" height="30" as="alternateBounds" />
          </mxGeometry>
        </mxCell>
        <mxCell id="2xNWyVSSCW6eG2RXgIqd-87" value="" style="shape=tableRow;horizontal=0;startSize=0;swimlaneHead=0;swimlaneBody=0;fillColor=none;collapsible=0;dropTarget=0;points=[[0,0.5],[1,0.5]];portConstraint=eastwest;top=0;left=0;right=0;bottom=0;labelBackgroundColor=none;" parent="2xNWyVSSCW6eG2RXgIqd-77" vertex="1">
          <mxGeometry y="120" width="120" height="20" as="geometry" />
        </mxCell>
        <mxCell id="2xNWyVSSCW6eG2RXgIqd-88" value="" style="shape=partialRectangle;connectable=0;fillColor=none;top=0;left=0;bottom=0;right=0;editable=1;overflow=hidden;whiteSpace=wrap;html=1;labelBackgroundColor=none;" parent="2xNWyVSSCW6eG2RXgIqd-87" vertex="1">
          <mxGeometry width="30" height="20" as="geometry">
            <mxRectangle width="30" height="20" as="alternateBounds" />
          </mxGeometry>
        </mxCell>
        <mxCell id="2xNWyVSSCW6eG2RXgIqd-89" value="" style="shape=partialRectangle;connectable=0;fillColor=none;top=0;left=0;bottom=0;right=0;align=left;spacingLeft=6;overflow=hidden;whiteSpace=wrap;html=1;labelBackgroundColor=none;" parent="2xNWyVSSCW6eG2RXgIqd-87" vertex="1">
          <mxGeometry x="30" width="90" height="20" as="geometry">
            <mxRectangle width="90" height="20" as="alternateBounds" />
          </mxGeometry>
        </mxCell>
        <mxCell id="2xNWyVSSCW6eG2RXgIqd-94" value="" style="edgeStyle=entityRelationEdgeStyle;fontSize=12;html=1;endArrow=ERoneToMany;rounded=0;labelBackgroundColor=none;fontColor=default;" parent="1" target="2xNWyVSSCW6eG2RXgIqd-5" edge="1">
          <mxGeometry width="100" height="100" relative="1" as="geometry">
            <mxPoint x="540" y="242" as="sourcePoint" />
            <mxPoint x="280" y="208" as="targetPoint" />
          </mxGeometry>
        </mxCell>
        <mxCell id="7PhHQdFO9IwtksnKTVGG-1" value="" style="edgeStyle=entityRelationEdgeStyle;fontSize=12;html=1;endArrow=ERmany;startArrow=ERmany;rounded=0;exitX=0.997;exitY=0.049;exitDx=0;exitDy=0;exitPerimeter=0;labelBackgroundColor=none;fontColor=default;" parent="1" source="2xNWyVSSCW6eG2RXgIqd-1" edge="1">
          <mxGeometry width="100" height="100" relative="1" as="geometry">
            <mxPoint x="20" y="120" as="sourcePoint" />
            <mxPoint x="120" y="20" as="targetPoint" />
          </mxGeometry>
        </mxCell>
        <mxCell id="ITph7MN20ZaM-oKSRW7L-2" value="&lt;p class=&quot;MsoNormal&quot;&gt;&lt;i style=&quot;mso-bidi-font-style:normal&quot;&gt;&lt;u&gt;&lt;span style=&quot;font-size:26.0pt;line-height:107%;color:black;mso-themecolor:text1;&#xa;mso-style-textoutline-type:none;mso-style-textoutline-outlinestyle-dpiwidth:&#xa;0pt;mso-style-textoutline-outlinestyle-linecap:flat;mso-style-textoutline-outlinestyle-join:&#xa;round;mso-style-textoutline-outlinestyle-pctmiterlimit:0%;mso-style-textoutline-outlinestyle-dash:&#xa;solid;mso-style-textoutline-outlinestyle-align:center;mso-style-textoutline-outlinestyle-compound:&#xa;simple;mso-effects-shadow-color:black;mso-effects-shadow-themecolor:dark1;&#xa;mso-effects-shadow-alpha:40.0%;mso-effects-shadow-dpiradius:3.0pt;mso-effects-shadow-dpidistance:&#xa;1.5pt;mso-effects-shadow-angledirection:2700000;mso-effects-shadow-align:topleft;&#xa;mso-effects-shadow-pctsx:100.0%;mso-effects-shadow-pctsy:100.0%;mso-effects-shadow-anglekx:&#xa;0;mso-effects-shadow-angleky:0&quot;&gt;ER Diagram &lt;/span&gt;&lt;/u&gt;&lt;/i&gt;&lt;i style=&quot;mso-bidi-font-style:&#xa;normal&quot;&gt;&lt;u&gt;&lt;span style=&quot;font-size:28.0pt;mso-bidi-font-size:26.0pt;line-height:&#xa;107%;color:black;mso-themecolor:text1;mso-style-textoutline-type:none;&#xa;mso-style-textoutline-outlinestyle-dpiwidth:0pt;mso-style-textoutline-outlinestyle-linecap:&#xa;flat;mso-style-textoutline-outlinestyle-join:round;mso-style-textoutline-outlinestyle-pctmiterlimit:&#xa;0%;mso-style-textoutline-outlinestyle-dash:solid;mso-style-textoutline-outlinestyle-align:&#xa;center;mso-style-textoutline-outlinestyle-compound:simple;mso-effects-shadow-color:&#xa;black;mso-effects-shadow-themecolor:dark1;mso-effects-shadow-alpha:40.0%;&#xa;mso-effects-shadow-dpiradius:3.0pt;mso-effects-shadow-dpidistance:1.5pt;&#xa;mso-effects-shadow-angledirection:2700000;mso-effects-shadow-align:topleft;&#xa;mso-effects-shadow-pctsx:100.0%;mso-effects-shadow-pctsy:100.0%;mso-effects-shadow-anglekx:&#xa;0;mso-effects-shadow-angleky:0&quot;&gt;about&lt;/span&gt;&lt;/u&gt;&lt;/i&gt;&lt;i style=&quot;mso-bidi-font-style:&#xa;normal&quot;&gt;&lt;u&gt;&lt;span style=&quot;font-size:26.0pt;line-height:107%;color:black;&#xa;mso-themecolor:text1;mso-style-textoutline-type:none;mso-style-textoutline-outlinestyle-dpiwidth:&#xa;0pt;mso-style-textoutline-outlinestyle-linecap:flat;mso-style-textoutline-outlinestyle-join:&#xa;round;mso-style-textoutline-outlinestyle-pctmiterlimit:0%;mso-style-textoutline-outlinestyle-dash:&#xa;solid;mso-style-textoutline-outlinestyle-align:center;mso-style-textoutline-outlinestyle-compound:&#xa;simple;mso-effects-shadow-color:black;mso-effects-shadow-themecolor:dark1;&#xa;mso-effects-shadow-alpha:40.0%;mso-effects-shadow-dpiradius:3.0pt;mso-effects-shadow-dpidistance:&#xa;1.5pt;mso-effects-shadow-angledirection:2700000;mso-effects-shadow-align:topleft;&#xa;mso-effects-shadow-pctsx:100.0%;mso-effects-shadow-pctsy:100.0%;mso-effects-shadow-anglekx:&#xa;0;mso-effects-shadow-angleky:0&quot;&gt; an insitution&lt;/span&gt;&lt;/u&gt;&lt;/i&gt;&lt;/p&gt;" style="text;whiteSpace=wrap;html=1;labelBackgroundColor=none;" parent="1" vertex="1">
          <mxGeometry x="54" y="-393" width="512" height="84" as="geometry" />
        </mxCell>
        <mxCell id="ITph7MN20ZaM-oKSRW7L-7" value="Entities" style="text;html=1;align=center;verticalAlign=middle;resizable=0;points=[];autosize=1;strokeColor=none;fillColor=none;labelBackgroundColor=none;" parent="1" vertex="1">
          <mxGeometry x="102" y="-291" width="60" height="28" as="geometry" />
        </mxCell>
        <mxCell id="ITph7MN20ZaM-oKSRW7L-12" value="Department&lt;div&gt;Enrollment&lt;/div&gt;&lt;div&gt;student&lt;/div&gt;&lt;div&gt;course&lt;/div&gt;&lt;div&gt;Proffesor&lt;/div&gt;" style="text;html=1;align=center;verticalAlign=middle;resizable=0;points=[];autosize=1;strokeColor=none;fillColor=none;" parent="1" vertex="1">
          <mxGeometry x="96" y="-258" width="81" height="84" as="geometry" />
        </mxCell>
        <mxCell id="ITph7MN20ZaM-oKSRW7L-14" value="Foreign key&lt;div&gt;&lt;br&gt;&lt;div&gt;ProfessorID&lt;/div&gt;&lt;div&gt;StudentID&lt;/div&gt;&lt;div&gt;DepartmentID&lt;/div&gt;&lt;div&gt;CourseID&lt;/div&gt;&lt;/div&gt;" style="text;html=1;align=center;verticalAlign=middle;resizable=0;points=[];autosize=1;strokeColor=none;fillColor=none;fontFamily=Helvetica;fontSize=12;fontColor=default;" parent="1" vertex="1">
          <mxGeometry x="414" y="-309" width="93" height="99" as="geometry" />
        </mxCell>
        <mxCell id="ITph7MN20ZaM-oKSRW7L-17" value="Primary Key&lt;div&gt;&lt;br&gt;&lt;/div&gt;&lt;div&gt;StudentID&lt;/div&gt;&lt;div&gt;CourseID&lt;/div&gt;&lt;div&gt;ProfessorID&lt;/div&gt;&lt;div&gt;DepartmentID&lt;/div&gt;&lt;div&gt;EnrollementID&lt;/div&gt;" style="rounded=1;whiteSpace=wrap;html=1;align=center;verticalAlign=middle;fontFamily=Helvetica;fontSize=12;fontColor=default;autosize=1;resizable=0;fillColor=none;gradientColor=none;" parent="1" vertex="1">
          <mxGeometry x="425" y="-156" width="96" height="114" as="geometry" />
        </mxCell>
        <mxCell id="ITph7MN20ZaM-oKSRW7L-19" value="Atributes&lt;div&gt;&lt;br&gt;&lt;div&gt;Name&lt;/div&gt;&lt;div&gt;Reg.no&lt;/div&gt;&lt;div&gt;Adress&lt;/div&gt;&lt;div&gt;code&lt;/div&gt;&lt;div&gt;Tittle&lt;/div&gt;&lt;/div&gt;" style="text;html=1;align=center;verticalAlign=middle;resizable=0;points=[];autosize=1;strokeColor=none;fillColor=none;fontFamily=Helvetica;fontSize=12;fontColor=default;" parent="1" vertex="1">
          <mxGeometry x="242" y="-309" width="66" height="114" as="geometry" />
        </mxCell>
      </root>
    </mxGraphModel>
  </diagram>
</mxfile>
